<?xml version="1.0" encoding="UTF-8" standalone="no"?>
<svg
   xmlns:dc="http://purl.org/dc/elements/1.1/"
   xmlns:cc="http://creativecommons.org/ns#"
   xmlns:rdf="http://www.w3.org/1999/02/22-rdf-syntax-ns#"
   xmlns:svg="http://www.w3.org/2000/svg"
   xmlns="http://www.w3.org/2000/svg"
   xmlns:sodipodi="http://sodipodi.sourceforge.net/DTD/sodipodi-0.dtd"
   xmlns:inkscape="http://www.inkscape.org/namespaces/inkscape"
   inkscape:version="1.0 (4035a4fb49, 2020-05-01)"
   height="27"
   width="23"
   sodipodi:docname="editor.svg"
   id="svg51"
   viewBox="0 0 23 27"
   version="1.1">
  <metadata
     id="metadata55">
    <rdf:RDF>
      <cc:Work
         rdf:about="">
        <dc:format>image/svg+xml</dc:format>
        <dc:type
           rdf:resource="http://purl.org/dc/dcmitype/StillImage" />
        <dc:title></dc:title>
      </cc:Work>
    </rdf:RDF>
  </metadata>
  <sodipodi:namedview
     inkscape:current-layer="svg51"
     inkscape:window-maximized="1"
     inkscape:window-y="39"
     inkscape:window-x="50"
     inkscape:cy="9.5136035"
     inkscape:cx="5.5417147"
     inkscape:zoom="8.7395833"
     showgrid="false"
     id="namedview53"
     inkscape:window-height="1013"
     inkscape:window-width="1870"
     inkscape:pageshadow="2"
     inkscape:pageopacity="0"
     guidetolerance="10"
     gridtolerance="10"
     objecttolerance="10"
     borderopacity="1"
     bordercolor="#666666"
     pagecolor="#ffffff" />
  <defs
     id="defs7">
    <linearGradient
       gradientUnits="userSpaceOnUse"
       gradientTransform="rotate(-90,23.999999,24.000001)"
       x2="47"
       x1="1"
       id="bg">
      <stop
         id="stop2"
         offset="0"
         style="stop-color:#586472" />
      <stop
         id="stop4"
         offset="1"
         style="stop-color:#616e7d" />
    </linearGradient>
  </defs>
  <g
     transform="translate(-13,-10)"
     id="g896">
    <path
       d="m 17,11 c -0.554,0 -1,0.446 -1,1 v 1 H 14 V 37 H 36 V 13 h -2 v -1 c 0,-0.554 -0.446,-1 -1,-1 -0.554,0 -1,0.446 -1,1 v 1 h -2 v -1 c 0,-0.554 -0.446,-1 -1,-1 -0.554,0 -1,0.446 -1,1 v 1 h -2 v -1 c 0,-0.554 -0.446,-1 -1,-1 -0.554,0 -1,0.446 -1,1 v 1 h -2 v -1 c 0,-0.554 -0.446,-1 -1,-1 -0.554,0 -1,0.446 -1,1 v 1 h -2 v -1 c 0,-0.554 -0.446,-1 -1,-1 z"
       style="fill-opacity:0.098"
       id="path19" />
    <rect
       x="13"
       y="12"
       width="22"
       height="24"
       style="fill:#efebe9"
       id="rect21" />
    <path
       d="m 15.1,12 v 1.199 c 0,0.665 0.534,1.201 1.199,1.201 0.665,0 1.199,-0.536 1.199,-1.201 V 12 H 15.1 m 4,0 v 1.199 c 0,0.665 0.534,1.201 1.199,1.201 0.665,0 1.199,-0.536 1.199,-1.201 V 12 H 19.1 m 4,0 v 1.199 c 0,0.665 0.534,1.201 1.199,1.201 0.665,0 1.199,-0.536 1.199,-1.201 V 12 H 23.1 m 4,0 v 1.199 c 0,0.665 0.534,1.201 1.199,1.201 0.665,0 1.199,-0.536 1.199,-1.201 V 12 H 27.1 m 4,0 v 1.199 c 0,0.665 0.534,1.201 1.199,1.201 0.665,0 1.199,-0.536 1.199,-1.201 V 12 H 31.1"
       style="opacity:0.1"
       id="path23" />
    <rect
       ry="1"
       x="15"
       y="10"
       width="2"
       height="4"
       rx="1"
       style="fill:#a6a6a6"
       id="rect25" />
    <path
       d="m 16,17 v 1 h 15 v -1 z m 0,3 v 1 h 11 v -1 z m 0,3 v 1 h 16 v -1 z m 0,3 v 1 h 10 v -1 z"
       style="fill:#808080"
       id="path27" />
    <path
       d="m 32.618,16.196 -14.647,15.502 -1.9728,3.4979 3.3514,-2.1368 14.647,-15.501 z"
       style="fill-opacity:0.098"
       id="path29" />
    <rect
       transform="matrix(0.71196,0.70222,-0.6868,0.72685,0,0)"
       x="33.425999"
       y="-8.4783001"
       width="1.9373"
       height="18.419001"
       style="fill:#3b6dad"
       id="rect31" />
    <path
       d="m 31.617,15.195 -1.33,1.41 1.379,1.361 1.332,-1.41 z"
       style="fill:#c83737"
       id="path33" />
    <path
       d="m 16.971,30.698 1.3793,1.3604 -3.3528,2.1382 z"
       style="fill:#efdc90"
       id="path35" />
    <rect
       transform="matrix(0.71196,0.70222,-0.6868,0.72685,0,0)"
       x="33.425999"
       y="-9.4476995"
       width="1.9373"
       height="0.96939999"
       style="fill:#d7e3f4"
       id="rect37" />
    <rect
       transform="matrix(0.71196,0.70222,-0.6868,0.72685,0,0)"
       x="34.395"
       y="-8.4783001"
       width="0.96867001"
       height="18.419001"
       style="fill:#2c4f92"
       id="rect39" />
    <path
       d="m 16.687,33.14 -1.6895,1.0562 0.99226,-1.7439 c 0.24345,0.24012 0.4531,0.44691 0.69655,0.68702 z"
       style="fill:#212121"
       id="path41" />
    <rect
       ry="1"
       x="19"
       y="10"
       width="2"
       height="4"
       rx="1"
       style="fill:#a6a6a6"
       id="rect43" />
    <rect
       ry="1"
       x="27"
       y="10"
       width="2"
       height="4"
       rx="1"
       style="fill:#a6a6a6"
       id="rect45" />
    <rect
       ry="1"
       x="31"
       y="10"
       width="2"
       height="4"
       rx="1"
       style="fill:#a6a6a6"
       id="rect47" />
    <rect
       ry="1"
       x="23"
       y="10"
       width="2"
       height="4"
       rx="1"
       style="fill:#a6a6a6"
       id="rect49" />
  </g>
</svg>
