<?xml version="1.0" encoding="UTF-8" standalone="no"?>
<svg
   xmlns:dc="http://purl.org/dc/elements/1.1/"
   xmlns:cc="http://creativecommons.org/ns#"
   xmlns:rdf="http://www.w3.org/1999/02/22-rdf-syntax-ns#"
   xmlns:svg="http://www.w3.org/2000/svg"
   xmlns="http://www.w3.org/2000/svg"
   xmlns:sodipodi="http://sodipodi.sourceforge.net/DTD/sodipodi-0.dtd"
   xmlns:inkscape="http://www.inkscape.org/namespaces/inkscape"
   width="50.933445"
   height="65.948448"
   version="1"
   id="svg14"
   sodipodi:docname="libreoffice-writer2-new.svg"
   inkscape:version="1.0 (4035a4fb49, 2020-05-01)">
  <metadata
     id="metadata20">
    <rdf:RDF>
      <cc:Work
         rdf:about="">
        <dc:format>image/svg+xml</dc:format>
        <dc:type
           rdf:resource="http://purl.org/dc/dcmitype/StillImage" />
        <dc:title></dc:title>
      </cc:Work>
    </rdf:RDF>
  </metadata>
  <defs
     id="defs18" />
  <sodipodi:namedview
     inkscape:document-rotation="0"
     pagecolor="#ffffff"
     bordercolor="#666666"
     borderopacity="1"
     objecttolerance="10"
     gridtolerance="10"
     guidetolerance="10"
     inkscape:pageopacity="0"
     inkscape:pageshadow="2"
     inkscape:window-width="1870"
     inkscape:window-height="1013"
     id="namedview16"
     showgrid="false"
     inkscape:zoom="9.269728"
     inkscape:cx="28.480176"
     inkscape:cy="32.574943"
     inkscape:window-x="50"
     inkscape:window-y="39"
     inkscape:window-maximized="1"
     inkscape:current-layer="svg14" />
  <g
     transform="translate(-3.0665564,4.9484504)"
     id="g844">
    <path
       id="path2"
       d="m 10,56 v 2 c 0,1.662 1.338,3 3,3 h 38 c 1.662,0 3,-1.338 3,-3 v -2 c 0,1.662 -1.338,3 -3,3 H 13 c -1.662,0 -3,-1.338 -3,-3 z"
       style="opacity:0.2" />
    <path
       id="path4"
       d="M 54,57 V 7 C 54,5.338 52.662,4 51,4 H 13 c -1.662,0 -3,1.338 -3,3 v 50 c 0,1.662 1.338,3 3,3 h 38 c 1.662,0 3,-1.338 3,-3 z"
       style="fill:#5b8dc4;fill-opacity:1" />
    <path
       id="path6"
       d="M 14,9 V 57 H 50 V 25.828 L 33.172,9 Z M 38.828,9 50,20.172 V 9 Z"
       style="opacity:0.1" />
    <path
       id="path8"
       d="M 14,8 V 56 H 50 V 24.828 L 33.172,8 Z M 38.828,8 50,19.1718 V 8 Z"
       style="fill:#f5f5f5" />
    <path
       id="path10"
       d="m 13,4 c -1.662,0 -3,1.338 -3,3 v 1 c 0,-1.662 1.338,-3 3,-3 h 38 c 1.662,0 3,1.338 3,3 V 7 C 54,5.338 52.662,4 51,4 Z"
       style="opacity:0.1;fill:#ffffff" />
    <path
       id="path12"
       d="m 20,48.044 v -2 h 16 v 2 z m 0,-6 v -2 h 24 v 2 z m 0,-6 v -2 h 24 v 2 z m 0,-6 v -2 h 24 v 2 z"
       style="opacity:0.5" />
    <path
       sodipodi:type="star"
       style="fill:#ffcc00;stroke-width:4;stroke-linecap:round;stroke-linejoin:round;stroke-miterlimit:10;stroke-opacity:0.698039"
       id="path835"
       sodipodi:sides="5"
       sodipodi:cx="13.53912"
       sodipodi:cy="5.8408275"
       sodipodi:r1="10.810934"
       sodipodi:r2="5.405467"
       sodipodi:arg1="0.87917142"
       sodipodi:arg2="1.5074899"
       inkscape:flatsided="false"
       inkscape:rounded="0"
       inkscape:randomized="0"
       d="M 20.43422,14.167524 13.881092,11.235466 7.7506637,14.971549 8.5141885,7.8330975 3.0665564,3.1572267 10.091569,1.6774792 l 2.763607,-6.6259296 3.578172,6.2239171 7.155634,0.5808212 -4.813581,5.3263397 z"
       inkscape:transform-center-x="0.21135033"
       inkscape:transform-center-y="-0.82927828" />
  </g>
</svg>
