<?xml version="1.0" encoding="UTF-8" standalone="no"?>
<svg
   xmlns:dc="http://purl.org/dc/elements/1.1/"
   xmlns:cc="http://creativecommons.org/ns#"
   xmlns:rdf="http://www.w3.org/1999/02/22-rdf-syntax-ns#"
   xmlns:svg="http://www.w3.org/2000/svg"
   xmlns="http://www.w3.org/2000/svg"
   xmlns:sodipodi="http://sodipodi.sourceforge.net/DTD/sodipodi-0.dtd"
   xmlns:inkscape="http://www.inkscape.org/namespaces/inkscape"
   viewBox="0 0 48.710087 47"
   version="1.1"
   id="svg45"
   sodipodi:docname="world.svg"
   width="48.710087"
   height="47"
   inkscape:version="1.0 (4035a4fb49, 2020-05-01)">
  <metadata
     id="metadata49">
    <rdf:RDF>
      <cc:Work
         rdf:about="">
        <dc:format>image/svg+xml</dc:format>
        <dc:type
           rdf:resource="http://purl.org/dc/dcmitype/StillImage" />
        <dc:title />
      </cc:Work>
    </rdf:RDF>
  </metadata>
  <sodipodi:namedview
     inkscape:document-rotation="0"
     pagecolor="#ffffff"
     bordercolor="#666666"
     borderopacity="1"
     objecttolerance="10"
     gridtolerance="10"
     guidetolerance="10"
     inkscape:pageopacity="0"
     inkscape:pageshadow="2"
     inkscape:window-width="1870"
     inkscape:window-height="1013"
     id="namedview47"
     showgrid="false"
     inkscape:zoom="8.7395834"
     inkscape:cx="0.73048175"
     inkscape:cy="28.68618"
     inkscape:window-x="50"
     inkscape:window-y="39"
     inkscape:window-maximized="1"
     inkscape:current-layer="svg45" />
  <defs
     id="defs7">
    <linearGradient
       id="linearGradient3764"
       x1="1"
       x2="47"
       gradientUnits="userSpaceOnUse"
       gradientTransform="rotate(-90,24.589237,24.410761)">
      <stop
         style="stop-color:#5186c1;stop-opacity:1"
         id="stop2" />
      <stop
         offset="1"
         style="stop-color:#6090c6;stop-opacity:1"
         id="stop4" />
    </linearGradient>
  </defs>
  <g
     id="g33"
     transform="translate(-0.17847715,-1)">
    <g
       id="g31">
      <g
         transform="translate(1,1)"
         id="g29">
        <g
           style="opacity:0.1"
           id="g27">
          <!-- color: #5fad38 -->
        </g>
      </g>
    </g>
  </g>
  <g
     id="g37"
     transform="translate(-0.17847715,-1)">
    <g
       id="g35">
      <!-- color: #5fad38 -->
    </g>
  </g>
  <g
     transform="translate(0.82152285)"
     id="g900">
    <path
       d="M 44.504427,10.205358 C 43.703457,8.2718983 32.918271,10.902877 20.414916,16.082 7.9115693,21.261124 -1.5752847,27.027017 -0.77431447,28.960474 0.02648073,30.893938 10.811661,28.262954 23.3152,23.083834 35.818549,17.90471 45.305215,12.138817 44.504427,10.205358"
       style="fill:#406fbf;fill-opacity:1;fill-rule:nonzero;stroke:none;stroke-width:0.0182452"
       id="path54" />
    <g
       transform="translate(-1,-1)"
       id="g892">
      <g
         id="g15">
        <path
           d="m 36.31,5 c 5.859,4.062 9.688,10.831 9.688,18.5 0,12.426 -10.07,22.5 -22.5,22.5 -7.669,0 -14.438,-3.828 -18.5,-9.688 1.037,1.822 2.306,3.499 3.781,4.969 4.085,3.712 9.514,5.969 15.469,5.969 12.703,0 23,-10.298 23,-23 0,-5.954 -2.256,-11.384 -5.969,-15.469 C 39.81,7.306 38.132,6.037 36.31,5 Z m 4.969,3.781 c 3.854,4.113 6.219,9.637 6.219,15.719 0,12.703 -10.297,23 -23,23 -6.081,0 -11.606,-2.364 -15.719,-6.219 4.16,4.144 9.883,6.719 16.219,6.719 12.703,0 23,-10.298 23,-23 0,-6.335 -2.575,-12.06 -6.719,-16.219 z"
           style="opacity:0.05"
           id="path9" />
        <path
           d="m 41.28,8.781 c 3.712,4.085 5.969,9.514 5.969,15.469 0,12.703 -10.297,23 -23,23 -5.954,0 -11.384,-2.256 -15.469,-5.969 4.113,3.854 9.637,6.219 15.719,6.219 12.703,0 23,-10.298 23,-23 0,-6.081 -2.364,-11.606 -6.219,-15.719 z"
           style="opacity:0.1"
           id="path11" />
        <path
           d="M 31.25,2.375 C 39.865,5.529 46,13.792 46,23.505 c 0,12.426 -10.07,22.5 -22.5,22.5 -9.708,0 -17.971,-6.135 -21.12,-14.75 a 23,23 0 0 0 44.875,-7 23,23 0 0 0 -16,-21.875 z"
           style="opacity:0.2"
           id="path13" />
      </g>
      <path
         id="path17"
         style="fill:url(#linearGradient3764);fill-opacity:1"
         d="M 24,1 C 21.73,1 19.538,1.334 17.467,1.947 19.001,3 16.217,3.967 14.262,3.162 6.429,6.829 1,14.779 1,24 1,31.505 4.595,38.169 10.156,42.367 16,45 32,45 39.84,40.668 c 2.366,-2.249 4.253,-4.995 5.494,-8.07 0,-10e-4 0,-10e-4 0,-0.002 0.234,-1.595 0.667,-3.594 1.23,-4.15 h 0.002 C 46.848,27.008 47,25.523 47,24.003 c 0,-0.118 -0.006,-0.234 -0.008,-0.352 -10e-4,0 -10e-4,0 -0.002,0 C 45.998,23.002 46.434,22.469 46.836,21.303 46.651,19.726 46.309,18.198 45.822,16.735 43.996,15.997 37.999,9.001 34.722,3.655 31.519,1.963 27.872,1.001 23.997,1.001 Z" />
      <g
         id="g41">
        <path
           d="m 40.03,7.531 c 3.712,4.084 5.969,9.514 5.969,15.469 0,12.703 -10.297,23 -23,23 C 17.045,46 11.615,43.744 7.53,40.031 11.708,44.322 17.54,47 23.999,47 c 12.703,0 23,-10.298 23,-23 0,-6.462 -2.677,-12.291 -6.969,-16.469 z"
           style="opacity:0.1"
           id="path39" />
      </g>
      <path
         d="m 17.423,1.921 c -1.152,0.34 -2.267,0.767 -3.336,1.275 l 0.363,0.969 0.15,0.598 -0.621,0.346 -0.254,0.465 0.189,1.063 0.754,0.125 0.719,-0.688 0.625,-0.656 0.965,-0.25 1.227,-0.594 0.719,-0.875 1.031,-1.254 0.719,-0.189 -0.031,-0.275 H 19.521 L 17.423,1.922 Z m 8.582,0.443 c -0.055,0.02 -1.527,0.023 -1.527,0.023 l -0.379,0.098 0.5,0.598 0.531,-0.5 0.344,0.219 0.5,-0.25 c 0,0 0.09,-0.211 0.031,-0.188 z m 6,0.461 -0.375,0.004 -0.469,0.063 -0.406,0.25 -0.469,0.35 -0.277,0.5 0.434,0.438 0.375,0.031 0.156,-0.254 -0.375,-0.314 0.219,-0.188 0.031,-0.152 0.469,-0.313 c 0,0 0.609,0.008 0.656,0 0.051,-0.012 0.188,-0.191 0.188,-0.191 L 32.006,2.826 Z m 2.717,0.83 -0.498,0.299 -0.531,0.438 0.063,0.189 -0.277,0.031 V 4.616 L 29.395,5.296 29.411,5.284 28.192,5.938 27.879,5.715 27.723,5.465 27.787,5.211 28.475,5.246 28.791,5.121 28.17,4.807 27.295,4.493 26.416,4.337 25.475,4.528 24.506,5.307 24.07,5.746 23.416,6.465 23.166,6.496 23.07,6.84 23.195,7.184 c 0,0 0.133,0.156 0.156,0.156 0.02,0 0.25,-0.125 0.25,-0.125 0,0 0.027,-0.117 0.156,-0.156 0.133,-0.039 0.25,-0.063 0.25,-0.063 l 0.188,0.375 0.225,0.313 0.09,0.25 c 0,0 0.363,-0.223 0.379,-0.25 0.008,-0.031 0.031,-0.41 0.031,-0.41 l 0.271,-0.188 c 0,0 0.074,-0.133 0.066,-0.156 C 25.245,6.91 25.069,6.711 25.069,6.711 L 24.913,6.648 24.976,6.332 c 0,0 0.125,-0.051 0.125,-0.094 0,-0.039 0.191,-0.189 0.191,-0.189 l 0.219,-0.275 0.156,-0.189 0.219,-0.156 0.254,0.189 v 0.125 l -0.223,0.25 -0.066,0.25 v 0.344 l 0.191,0.156 0.344,-0.031 0.314,-0.063 0.279,0.154 -0.064,0.221 c 0,0 -0.195,0.188 -0.25,0.219 -0.059,0.031 -0.41,-0.063 -0.5,-0.031 -0.09,0.031 -0.314,0.316 -0.314,0.316 0,0 -0.023,0.249 0,0.313 0.012,0.023 -0.004,0.071 -0.012,0.129 L 25.814,7.988 25.435,8.267 H 25.41 L 25.16,8.173 c 0,0 -0.158,0.008 -0.225,0.066 -0.063,0.051 -0.12,0.102 -0.313,0.121 -0.191,0.02 -0.563,0 -0.598,0 H 23.805 L 23.836,8.133 23.992,7.883 23.715,7.66 c 0,0 -0.184,0.23 -0.191,0.281 -0.004,0.055 0.125,0.279 0.125,0.279 0,0 -0.059,0.182 -0.09,0.221 -0.035,0.039 -0.313,0.125 -0.313,0.125 L 22.807,8.345 c 0,0 -0.18,-0.038 -0.156,0.064 0.027,0.102 0.225,0.195 0.225,0.281 0,0.082 -0.125,0.275 -0.125,0.275 l -0.156,0.189 -0.25,0.254 -0.344,0.09 c 0,0 -0.251,0.07 -0.314,0.094 -0.066,0.023 -0.254,0.066 -0.254,0.066 l -0.25,0.031 -0.156,0.223 0.281,0.191 0.189,0.309 c 0,0 0.119,0.223 0.154,0.223 0.031,0 0.092,0.219 0.092,0.219 l -0.189,0.25 H 21.46 l -0.656,0.125 -0.125,-0.281 -0.434,0.438 -0.191,0.721 v 0.598 l 0.754,0.406 0.594,-0.221 0.6,-1.064 0.529,-0.652 0.967,-0.156 0.219,-0.188 1.098,1.281 0.121,0.438 0.313,-0.156 -0.09,-0.375 h 0.188 l -0.125,-0.254 -1.063,-1 0.094,-0.188 0.344,-0.031 0.75,0.75 0.375,0.441 v 0.688 l 0.191,0.125 0.375,0.375 0.277,-0.094 -0.152,-0.566 0.094,-0.344 0.188,-0.219 0.439,0.156 0.156,0.063 -0.031,-0.5 0.25,-0.469 0.156,-0.689 0.563,0.096 0.094,0.313 0.219,0.156 0.254,-0.219 -0.156,-0.346 h 0.656 l -0.223,0.375 0.438,0.375 0.375,0.189 0.219,0.438 -0.5,0.121 -0.719,-0.156 h -0.621 l -0.598,0.316 -0.125,0.188 -0.434,0.094 0.188,0.469 0.344,0.406 0.625,-0.219 0.156,0.277 0.277,-0.219 0.375,0.063 0.035,0.41 -0.125,0.777 -0.344,-0.031 -0.41,-0.063 -0.188,0.465 -1.375,-0.25 -0.25,-0.316 -0.316,0.281 -0.344,0.469 -0.875,-0.5 -0.875,-0.527 v -0.941 l -0.564,0.031 -0.029,0.313 -1.375,-0.063 -0.439,0.402 -0.844,0.031 -0.566,0.5 -0.344,0.969 -0.875,0.691 -0.625,0.844 -0.031,1.625 -0.188,0.5 -0.063,0.598 0.375,0.652 0.219,0.625 0.754,0.906 0.434,0.375 0.441,0.094 0.09,-0.375 h 1.563 l 0.41,-0.188 0.5,0.063 0.152,0.313 0.527,0.031 0.348,0.25 v 0.531 l -0.121,0.438 -0.125,0.344 0.313,0.566 0.406,0.469 0.189,1.188 0.029,0.777 -0.275,0.656 -0.031,0.625 0.219,1.156 0.191,0.188 0.271,1.094 0.035,0.471 0.566,0.75 0.063,0.594 0.094,0.688 0.346,-0.344 0.875,-0.09 h 0.529 l 0.971,-1.5 0.063,-0.594 0.656,-0.656 0.031,-0.75 0.344,-0.754 0.813,-0.777 v -0.875 l -0.191,-0.813 -0.121,-1.125 0.594,-0.939 1.064,-1.313 0.41,-0.406 0.15,-0.531 0.254,-0.469 0.064,-0.691 h -0.594 l -0.281,0.281 -0.564,-0.156 -0.344,-0.563 -0.281,-0.563 -0.654,-0.5 -0.152,-0.813 -0.281,-0.475 -0.313,-0.594 -0.406,-0.719 -0.094,-0.469 0.438,-0.063 0.25,0.531 0.5,0.938 0.375,0.688 0.41,0.75 0.434,0.723 0.602,0.6 0.535,-0.5 0.594,-0.156 0.434,-0.531 0.6,-0.344 0.344,-0.594 0.031,-0.5 -0.281,-0.316 -0.375,-0.438 -0.25,0.154 -0.156,0.254 -0.406,-0.188 -0.125,-0.313 -0.281,-0.41 -0.434,-0.406 v -0.813 l 0.277,0.531 0.344,0.535 0.598,0.344 0.406,-0.094 0.25,0.281 1.785,-0.035 -0.035,0.035 0.566,0.5 0.406,0.563 0.125,0.277 h 0.275 l 0.096,-0.311 0.094,0.467 0.156,0.844 0.34,0.813 0.189,0.688 0.277,0.656 0.219,0.277 0.314,-0.188 0.094,-0.314 0.125,-0.775 -0.035,-0.689 0.254,-0.316 c 0,0 0.265,-0.359 0.313,-0.375 0.043,-0.012 0.621,-0.65 0.621,-0.65 l 0.281,-0.35 0.313,-0.188 0.375,-0.219 h 0.156 l 0.063,0.344 0.156,0.406 0.5,0.652 v 0.25 l 0.094,0.281 0.344,-0.156 -0.033,-0.375 0.313,0.066 0.066,0.344 -0.035,0.531 0.094,0.375 0.281,0.064 0.09,-0.314 0.344,0.219 0.066,0.316 0.309,0.469 0.316,0.344 0.219,0.191 0.535,-0.469 0.219,-0.441 -0.094,-0.5 -0.09,-0.656 -0.604,-0.563 -0.09,-0.566 0.25,-0.398 c 0,0 0.16,-0.32 0.316,-0.156 0.148,0.168 0.223,0.188 0.152,0.375 -0.063,0.184 -0.188,0.598 -0.188,0.598 l 0.375,0.156 0.156,-0.531 -0.156,-0.379 0.375,-0.156 0.441,-0.221 C 43.918,11.094 39.914,6.41 34.729,3.65 Z M 29.409,5.284 29.405,5.29 33.495,4.595 33.468,4.439 33.152,4.001 32.498,3.938 c 0,0 0.154,0.664 0.154,0.75 0,0.082 -0.438,0.025 -0.438,0.025 l -0.75,0.035 c 0,0 -1.086,0.25 -1.219,0.25 -0.133,0 -0.762,0.262 -0.813,0.281 L 29.409,5.283 Z M 11.721,4.501 c -0.6,0.377 -1.182,0.78 -1.742,1.209 l 0.154,0.068 0.531,0.465 0.525,0.125 0.191,-0.719 0.035,-0.438 0.621,0.094 c 0,0 -0.191,0.313 -0.094,0.313 0.098,0 0.469,-0.406 0.469,-0.406 L 11.72,4.501 Z m 6.937,0.875 -0.121,0.406 c 0.449,0.348 0.621,0.344 0.621,0.344 L 19.683,6.001 20.033,5.657 19.808,5.376 Z M 9.791,6.149 c 0,0 -0.432,0.25 -0.85,0.406 C 8.939,6.557 8.937,6.557 8.935,6.559 8.844,6.638 8.752,6.715 8.662,6.795 8.609,6.915 8.633,7.024 8.633,7.024 L 8.598,7.868 7.91,8.431 7.476,9.087 c 0,0 -0.2809997,-0.188 -0.2809997,-0.313 0,-0.125 -0.063,-0.469 -0.063,-0.469 l -0.008,-0.006 c -0.43,0.462 -0.841,0.942 -1.232,1.438 l 0.416,0.545 0.281,0.434 c 0,0 -0.249,0.844 -0.313,1 -0.063,0.156 -0.25,-0.313 -0.25,-0.313 l -0.156,-0.814 -0.531,0.225 -0.41,0.965 0.094,-0.811 0.02,-0.086 c -0.858,1.237 -1.6,2.56 -2.205,3.957 h 0.393 l 1.125,-0.25 0.406,0.531 -0.063,0.625 0.469,0.406 0.063,-0.441 c 0,0 -0.023,-0.719 -0.094,-0.906 -0.063,-0.188 0.566,-0.625 0.566,-0.625 l 0.496,-0.613 0.598,-0.727 0.281,-0.563 L 8.016,11.78 8.641,11.089 c 0,0 0.934,-0.148 1.121,-0.254 0.191,-0.09 0.066,-0.434 -0.125,-0.75 C 9.446,9.772 9.731,9.46 9.731,9.46 l 0.719,-0.434 0.625,0.121 0.066,0.754 c 0,0 0.59,0.563 0.781,0.465 0.188,-0.09 0.271,-0.406 0.271,-0.406 L 11.88,9.147 12.071,8.336 11.227,8.457 V 7.082 L 10.973,7.336 10.317,7.367 10.227,6.679 9.789,6.148 Z m 11.643,1.01 -0.25,0.219 c -0.066,0.305 -0.15,0.621 -0.15,0.621 l 0.469,0.223 0.063,0.277 -0.25,0.254 -0.219,0.375 0.152,0.156 0.563,-0.094 0.5,-0.219 L 22.035,8.596 21.937,7.94 21.593,7.565 21.435,7.159 Z m -0.775,1.184 -0.281,0.469 0.375,0.156 0.156,-0.281 z m 10.938,1.848 c 0.137,-0.043 0.375,0.154 0.375,0.154 l -0.25,0.221 0.09,0.313 0.281,0.75 0.281,0.469 0.375,0.594 -0.406,0.191 -0.531,-0.344 -0.223,-0.656 c 0,0 -0.303,-0.406 -0.436,-0.469 -0.137,-0.066 -0.254,-0.281 -0.254,-0.281 l 0.125,-0.531 c 0,0 0.431,-0.359 0.564,-0.406 l 0.008,-0.004 z m -7.906,1.188 -0.375,0.719 0.281,0.281 0.25,-0.223 0.031,-0.309 -0.188,-0.469 z m -1.252,0.75 v 0.188 l 0.156,-0.031 -0.156,-0.156 z m 2.156,0.469 -0.188,0.064 0.309,0.531 0.281,-0.221 -0.402,-0.375 z M 4.4650003,16.784 v 0.004 l -0.309,0.156 0.531,0.279 0.594,0.121 0.344,0.469 0.406,-0.25 -0.063,-0.279 -0.689,-0.5 z m -0.975,0.41 -0.564,0.09 -0.848,0.844 -0.363,-0.047 c -0.053,0.201 -0.101,0.404 -0.148,0.607 l 0.58,0.277 1.094,0.598 0.156,0.725 0.875,0.84 0.5,-0.375 0.41,0.316 -0.066,-0.725 -0.777,0.191 -0.254,-0.906 -0.09,-0.41 -0.688,-0.621 V 18.16 l 0.531,-0.566 z m 2.668,2.684 -0.006,0.004 -0.816,0.441 -0.09,0.9 -0.188,1 -0.563,0.75 0.029,1.125 0.467,1.156 0.5,1.406 1.313,1.313 0.063,0.75 0.094,3.385 0.469,1.9 c 0,0 0.2849997,1.103 0.2229997,1.189 -0.066,0.09 0.375,0.91 0.375,0.91 l 0.875,1.375 1.221,0.525 -0.5,-0.598 -0.25,-0.688 0.25,-0.719 -0.656,-0.344 c 0,0 0.434,-0.285 0.5,-0.375 0.066,-0.09 -0.09,-0.469 -0.09,-0.469 l -0.191,-0.467 0.496,-0.654 0.781,-0.189 0.125,-0.598 -0.469,-0.219 0.188,-0.5 0.75,-0.094 0.656,-1.598 0.469,-1.094 0.977,-0.471 c 0,0 0.309,-0.928 0.309,-1.064 0,-0.129 0.094,-1.531 0.094,-1.531 l 0.75,-1.023 0.094,-0.691 -0.563,-0.344 -0.469,-0.566 -0.852,0.066 -1.344,-0.781 -0.27,-0.656 c 0,0 -0.48,-0.813 -0.566,-0.813 -0.086,0 -0.652,0.035 -0.652,0.035 L 9.16,21.031 8.816,20.375 7.472,20.094 7.0340003,19.875 h -0.875 z M 42.596,20.37 c 0.113,0.129 0.813,2.219 0.906,2.219 0.09,0 0.625,0.066 0.625,0.066 l -0.281,-0.844 z m -3.594,0.066 -0.316,0.406 0.156,0.598 0.344,-0.375 -0.063,-0.473 z m 7.787,0.885 -1.17,0.646 c 0,0.094 -0.725,0.691 -0.725,0.691 l 0.191,0.625 0.41,0.465 0.273,0.688 1.17,-0.76 c -0.01,-0.796 -0.061,-1.581 -0.15,-2.355 z m -4.297,0.271 -0.436,0.066 1.996,3 0.531,0.594 1.313,0.064 0.814,0.254 -0.879,-0.625 -1.25,-0.346 -0.314,-1.154 -0.688,-0.564 -1.094,-1.281 0.006,-0.008 z M 31.99,26.467 v 0.439 c -0.02,0.066 -0.406,0.375 -0.406,0.375 l -0.469,0.219 -0.344,0.281 0.254,0.344 0.156,0.156 -0.41,0.344 v 0.563 l 0.156,0.594 0.344,0.094 0.41,-0.625 0.25,-0.406 -0.063,-0.5 0.375,-0.594 0.125,-0.281 v -0.563 l -0.096,-0.438 -0.283,-0.002 z m 14.52,1.986 c -0.05,0.017 -0.115,0.036 -0.119,0.051 -0.02,0.086 -0.563,0.375 -0.563,0.375 -0.113,0 -0.465,0.656 -0.465,0.656 l -0.066,2.063 -0.121,0.75 0.129,0.168 c 0.52,-1.3 0.928,-2.658 1.205,-4.063 z m -34.994,7.486 -0.215,0.152 -0.094,0.031 0.5,0.25 -0.191,-0.434 z m -0.848,0.184 0.002,0.004 0.002,-0.004 z m 0.002,0.004 -0.217,0.496 0.438,-0.094 z m 1.502,4.121 -0.469,0.719 -0.875,0.406 0.5,0.625 -0.75,0.375 -0.473,-0.023 c 3.851,2.907 8.645,4.631 13.842,4.631 6.137,0 11.708,-2.408 15.832,-6.324 l -2.549,0.096 -3.064,0.621 c 0,0 -1.477,0.793 -1.656,0.754 -0.18,-0.043 0.625,-1.031 0.625,-1.031 l -1.439,0.09 -0.904,-0.75 -0.91,0.621 c 0,0 -1.215,0.096 -1.527,0.096 -0.316,0 -0.723,0.563 -0.723,0.563 l -2.469,-0.09 -4.25,0.188 -1.121,0.965 -0.281,0.035 -3.215,-0.223 -2.219,0.223 -0.781,-0.379 0.031,-0.063 c 0,0 -0.652,-1.32 -0.652,-1.5 0,-0.176 -0.5,-0.621 -0.5,-0.621 L 12.173,40.25 Z"
         style="fill:#abd6ec;fill-opacity:1"
         id="path21-7" />
    </g>
    <path
       sodipodi:nodetypes="ccccccccccccccscccc"
       d="m 4.4853319,37.652957 c -1.0781309,0 -1.7520538,-0.204219 -1.930528,-0.635049 L -0.781966,28.962369 c 0.1784742,0.430668 0.8529472,0.635054 1.9307139,0.635054 0.8525755,1.37e-4 1.9577151,-0.127741 3.2708949,-0.372091 2.036548,-0.433224 0,0 2.036548,-0.433224 4.4025002,-1.03835 10.4001102,-3.033114 16.8564952,-5.70746 12.010192,-4.974775 21.237645,-10.491353 21.239109,-12.633384 0,-0.08814 -0.01554,-0.170626 -0.04728,-0.247087 l 3.33677,8.055335 c 0.03174,0.07664 0.04728,0.159129 0.04728,0.24727 -7.43e-4,1.519568 -4.646485,4.738272 -11.634271,8.256438 -2.86158,1.440916 -6.115316,2.931652 -9.604831,4.376947 -1.208431,0.500562 -2.401711,0.977582 -3.57054,1.428689 -5.508733,2.126196 -10.493908,3.682951 -14.17759,4.480618 -0.7584132,0.164238 -1.4620806,0.296321 -2.1033448,0.394483 l -5.427e-4,2.75e-4 c -4.089e-4,0 -6.839e-4,2.75e-4 -7.434e-4,2.75e-4 -0.8985639,0.137572 -1.6748639,0.208562 -2.3110133,0.208562"
       style="fill:#90b4e3;fill-opacity:1;fill-rule:nonzero;stroke:none;stroke-width:0.0182486"
       id="path84" />
    <path
       d="m 8.8421841,29.971303 c 0.6230618,-0.196456 1.2447499,-0.396262 1.8652479,-0.599221 0.668977,0.888683 1.33539,1.77638 2.000027,2.665654 -0.12,-1.068981 -0.237635,-2.140523 -0.352512,-3.213642 0.616167,-0.207884 1.230361,-0.419908 1.843766,-0.634098 0.759618,0.851244 1.515889,1.702684 2.268998,2.554323 -0.212217,-1.043561 -0.422665,-2.088897 -0.631338,-3.136006 0.610256,-0.219313 1.218737,-0.44237 1.826037,-0.669173 0.29971,1.90466 0.606711,3.804786 0.919816,5.698999 -0.62188,0.225226 -1.245334,0.446904 -1.870171,0.665233 -0.850457,-0.960213 -1.705447,-1.92062 -2.563784,-2.879451 0.127288,1.210263 0.258134,2.417767 0.391927,3.622318 -0.627987,0.210013 -1.257556,0.417149 -1.888498,0.620127 -1.261499,-1.566348 -2.531666,-3.131887 -3.8095159,-4.695063"
       style="fill:#ffffff;fill-opacity:1;fill-rule:nonzero;stroke:none;stroke-width:0.0197048"
       id="path86" />
    <path
       d="m 19.476823,26.252233 c 0.60809,-0.233304 1.214404,-0.471139 1.819729,-0.711339 0.631141,0.888879 1.259922,1.778351 1.887125,2.668611 -0.09556,-1.102085 -0.189366,-2.208704 -0.279615,-3.31532 0.600799,-0.245128 1.200021,-0.493604 1.798454,-0.745036 0.719023,0.845136 1.4347,1.690665 2.147221,2.53718 -0.185024,-1.07115 -0.368677,-2.144072 -0.550157,-3.217781 0.594888,-0.256754 1.188197,-0.516658 1.78052,-0.779913 0.252614,1.956679 0.512716,3.909416 0.779322,5.856244 -0.605922,0.264239 -1.213416,0.524538 -1.822491,0.78129 -0.804543,-0.953115 -1.613225,-1.906234 -2.426832,-2.859744 0.100095,1.248293 0.203549,2.49383 0.310149,3.736606 -0.612418,0.248869 -1.22622,0.494391 -1.841209,0.736561 -1.192525,-1.563963 -2.393134,-3.126351 -3.602216,-4.687359"
       style="fill:#ffffff;fill-opacity:1;fill-rule:nonzero;stroke:none;stroke-width:0.0197048"
       id="path88" />
    <path
       d="m 29.848596,21.891381 c 0.592522,-0.270545 1.183862,-0.545425 1.773626,-0.822277 0.593112,0.889669 1.183464,1.778351 1.771652,2.668217 -0.07113,-1.135584 -0.139317,-2.273334 -0.205524,-3.41345 0.58523,-0.281974 1.16948,-0.567496 1.752146,-0.855578 0.678236,0.838829 1.352331,1.677463 2.023873,2.516687 -0.158223,-1.097751 -0.31449,-2.19688 -0.468384,-3.295813 0.579319,-0.293796 1.157259,-0.59055 1.733622,-0.890455 0.205716,2.007122 0.418531,4.009516 0.638238,6.007575 -0.589763,0.302467 -1.181104,0.601584 -1.774017,0.896959 -0.758631,-0.946615 -1.520615,-1.891062 -2.287721,-2.836691 0.0725,1.284943 0.147986,2.568313 0.226804,3.847148 -0.595676,0.288282 -1.19371,0.571438 -1.79274,0.852231 -1.121986,-1.559236 -2.252244,-3.1165 -3.391575,-4.674553"
       style="fill:#ffffff;fill-opacity:1;fill-rule:nonzero;stroke:none;stroke-width:0.0197048"
       id="path90" />
    <path
       d="m -0.31361488,26.830765 -0.18443527,-0.801195 5.6737e-4,-3.98e-4 0.1848324,0.801391 -0.001131,1.91e-4"
       style="fill:#2555ad;fill-opacity:1;fill-rule:nonzero;stroke:none;stroke-width:0.0197048"
       id="path112" />
  </g>
</svg>
